# xmcd
#
# Track frame offsets:
#	150
#	21499
#	37438
#	54071
#	67483
#	83083
#	98444
#	113717
#	125250
#	145013
#	157378
#
# Disc length: 2121 seconds
#
# Revision: 1
# Processed by: cddbd v1.5.2PL0 Copyright (c) Steve Scherf et al.
# Submitted via: audiograbber 1.83.01
#
DISCID=9908470b
DTITLE=Maverick - Contry - Music - Show
DYEAR=1900
DGENRE=
TTITLE0=Maverick - Showportrait
TTITLE1=Let your love flow
TTITLE2=Rhinestone Cowboy
TTITLE3=Jambalaya
TTITLE4=Ghostriders
TTITLE5=Country medley
TTITLE6=Oh lonesome me
TTITLE7=Ring of fire
TTITLE8=Country Roads
TTITLE9=Wir sind die Mavericks
TTITLE10=Maverick - Jingle
EXTD=
EXTT0=
EXTT1=
EXTT2=
EXTT3=
EXTT4=
EXTT5=
EXTT6=
EXTT7=
EXTT8=
EXTT9=
EXTT10=
PLAYORDER=
